<svg
  version="1.1"
  xmlns="http://www.w3.org/2000/svg"
  xmlns:xlink="http://www.w3.org/1999/xlink"
  width="710"
  height="160">

  <defs>
    <clipPath id="cut-off-bottom">
      <rect x="0" y="0" width="250" height="60" />
    </clipPath>
    <clipPath id="cut-off-top-right">
      <rect x="0" y="60" width="60" height="60" />
    </clipPath>
  </defs>

  <g transform="translate(0,0)">
    <circle cx="60" cy="60" r="50" fill="none" stroke="black" stroke-width="20" clip-path="url(#cut-off-bottom)" />
    <rect x="0" y="60" width="20" height="100" />
    <rect x="100" y="60" width="20" height="100" />
    <circle cx="160" cy="60" r="50" fill="none" stroke="black" stroke-width="20" clip-path="url(#cut-off-bottom)" />
    <rect x="200" y="60" width="20" height="100" />
  </g>
  <g transform="translate(250,0)">
    <circle cx="60" cy="60" r="50" fill="none" stroke="black" stroke-width="20" clip-path="url(#cut-off-bottom)" />
    <rect x="0" y="60" width="20" height="100" />
    <rect x="100" y="60" width="20" height="100" />
  </g>
  <g transform="translate(400,0)">
    <circle cx="60" cy="60" r="50" fill="none" stroke="black" stroke-width="20" clip-path="url(#cut-off-bottom)" />
    <rect x="0" y="60" width="20" height="100" />
    <rect x="100" y="60" width="20" height="100" />
    <circle cx="160" cy="60" r="50" fill="none" stroke="black" stroke-width="20" clip-path="url(#cut-off-bottom)" />
    <rect x="200" y="60" width="20" height="100" />
  </g>
  <g transform="translate(650,0)">
    <rect x="0" y="0" width="20" height="100" />
    <g transform="translate(0, 40)">
      <circle cx="60" cy="60" r="50" fill="none" stroke="black" stroke-width="20" clip-path="url(#cut-off-top-right)" />
    </g>
  </g>
</svg>
