<svg
  version="1.1"
  xmlns="http://www.w3.org/2000/svg"
  xmlns:xlink="http://www.w3.org/1999/xlink"
  width="710"
  height="160">
  <style>
    path {
      fill: black;
    }

    @media (prefers-color-scheme: dark) {
      path {
        fill: white;
      }
    }
  </style>
  <path
      d="M 0,160
         v -100
         a 60,60 0 0 1 120,0
         h -20
         a 60,60 0 0 1 120,0
         v 100
         h -20
         v -100
         a 40,40 0 0 0 -80,0
         v 100
         h -20
         v -100
         a 40,40 0 0 0 -80,0
         v 100
         h -20
         Z" />
  <path
      d="M 250,160
         v -100
         a 60,60 0 0 1 120,0
         v 100
         h -20
         v -100
         a 40,40 0 0 0 -80,0
         v 100
         h -20
         Z" />
  <path
      d="M 400,160
         v -100
         a 60,60 0 0 1 120,0
         h -20
         a 60,60 0 0 1 120,0
         v 100
         h -20
         v -100
         a 40,40 0 0 0 -80,0
         v 100
         h -20
         v -100
         a 40,40 0 0 0 -80,0
         v 100
         h -20
         Z" />
  <path
      d="M 650,0
         v 100
         a 60,60 0 0 0 60,60
	 v -20
	 a 40,40 0 0 1 -40,-40
	 v -100
         Z" />
</svg>
