<svg
  version="1.1"
  xmlns="http://www.w3.org/2000/svg"
  xmlns:xlink="http://www.w3.org/1999/xlink"
  width="710"
  height="160">
  <style>
    path {
      stroke: black;
      stroke-width: 20;
      fill: none;
    }

    @media (prefers-color-scheme: dark) {
      path {
        stroke: white;
      }
    }
  </style>
  <path
      d="M 10,160
         v -100
         a 50,50 0 0 1 100,0
         v 100
         v -100
         a 50,50 0 0 1 100,0
         v 100
	 " />
  <path
      d="M 260,160
         v -100
         a 50,50 0 0 1 100,0
         v 100
         v -100
         a 50,50 0 0 0 -100,0
         v 100
	 " />
  <path
      d="M 410,160
         v -100
         a 50,50 0 0 1 100,0
         v 100
         v -100
         a 50,50 0 0 1 100,0
         v 100
	 " />
  <path
      d="M 660,0
         v 100
         a 50,50 0 0 0 50,50
         " />
</svg>
